<svg width="392" height="183" viewBox="0 0 392 183" fill="none" xmlns="http://www.w3.org/2000/svg">
<path d="M390.334 23.5882C330.412 16.3392 269.18 7.97021 207.062 17.2452C187.34 20.1902 177.172 29.3462 183.157 38.9912C195.667 59.1512 227.142 55.3002 250.091 58.9242C255.828 59.8302 260.371 60.2482 265.39 62.5482C284.833 71.4582 282.602 81.5752 275.908 88.8242C273.039 91.5422 267.143 94.7132 255.828 96.9792C237.024 100.743 219.492 98.7912 200.368 96.9792C150.646 91.5432 66.022 64.3602 1 95.6202" stroke="black" stroke-miterlimit="10"/>
<path d="M390.725 27.6864C329.525 21.1174 267.609 14.4494 204.423 24.7524C203.185 24.9534 201.976 25.1744 200.794 25.4134C180.768 29.4854 176.163 40.0724 180.566 47.3344C186.256 56.7194 197.405 61.1744 208.986 63.2394C223.566 65.8394 239.472 65.1783 253.7 67.0093C253.924 67.0383 254.146 67.0733 254.368 67.1063C260.511 68.0373 265.621 69.2074 270.648 72.0624C286.039 80.8034 284.509 89.9084 278.042 96.5284C277.639 96.9404 277.158 97.3444 276.611 97.7494C273.418 100.111 268.247 102.443 260.193 104.356C243.512 108.318 227.408 107.367 210.587 106.549C178.843 105.006 141.875 97.6824 101.362 96.2494C70.91 95.1724 21.743 97.4714 1.95703 117.365" stroke="black" stroke-miterlimit="10"/>
<path d="M391.116 31.785C328.639 25.896 266.038 20.928 201.785 32.259C200.539 32.478 199.312 32.712 198.103 32.96C175.403 37.638 174.749 50.218 177.978 55.678C183.783 65.495 196.788 70.17 209.302 72.07C225.382 74.512 242.077 73.439 257.916 75.187C258.161 75.214 258.404 75.253 258.647 75.288C265.196 76.243 270.894 78.069 275.909 81.576C287.457 89.653 286.171 98.018 280.179 104.231C279.815 104.608 279.402 104.985 278.928 105.345C275.823 107.7 271.159 109.832 264.561 111.733C250.004 115.927 235.29 116.16 220.808 116.12C183.986 116.018 147.006 110.321 104.404 110.688C76.5641 110.928 12.4391 113.768 2.91406 139.112" stroke="black" stroke-miterlimit="10"/>
<path d="M391.509 35.8844C327.754 30.6754 264.468 27.4074 199.148 39.7664C197.894 40.0034 196.649 40.2504 195.413 40.5064C170.039 45.7904 173.304 60.3824 175.39 64.0224C181.275 74.2914 196.175 79.1594 209.618 80.9014C227.202 83.1794 244.677 81.7014 262.133 83.3664C262.399 83.3914 262.662 83.4344 262.927 83.4714C269.881 84.4504 276.283 86.7754 281.17 91.0914C289.143 98.1324 287.831 106.127 282.316 111.936C281.991 112.278 281.646 112.628 281.245 112.942C278.237 115.301 274.077 117.252 268.928 119.111C256.509 123.596 243.161 125.184 231.029 125.691C189.099 127.444 152.137 122.689 107.447 125.127C82.2203 126.503 3.13629 130.065 3.87229 160.858" stroke="black" stroke-miterlimit="10"/>
<path d="M391.897 39.9822C325.629 35.3662 260.462 33.8272 192.717 48.0512C164.668 53.9402 171.824 70.5592 172.796 72.3642C178.613 83.1612 195.585 87.9182 209.929 89.7302C229.053 91.5422 247.221 90.6362 266.345 91.5422C273.995 92.4482 281.644 95.1662 286.425 100.603C291.206 106.945 289.294 115.1 283.556 120.537C272.082 128.692 254.631 134.355 241.244 135.261C194.39 140.698 157.212 134.697 110.484 139.565C87.8443 141.923 -6.1717 146.361 4.8243 182.603" stroke="black" stroke-miterlimit="10"/>
<path d="M46.4488 66.1313C42.4688 64.8243 37.3188 66.8653 34.3198 68.9123C31.0358 71.1543 28.4828 74.2293 24.7288 75.9403C21.7238 77.3103 18.1738 76.8983 14.4768 75.8693L13.1328 77.0203L48.5388 106.092C47.0598 106.041 45.4888 106.404 43.8518 107.336C37.4158 110.733 34.2758 115.882 34.4948 119.419C34.9108 126.129 43.5558 127.962 48.9668 125.004C54.6898 121.874 60.2288 114.952 55.4878 109.741C55.2378 109.466 54.9758 109.206 54.7088 108.954L54.7388 108.928L34.5038 92.3133C35.7048 92.0773 36.8478 90.9263 37.6868 90.2593C39.3798 88.9123 40.8308 87.3503 41.9108 85.6263C42.9728 83.9323 43.5288 82.4043 44.2688 80.5733C45.5438 77.4173 47.6328 75.6743 51.2198 75.1293C52.3068 74.9643 52.8498 74.8393 53.8558 75.3033C54.9268 75.7983 55.9118 76.4883 55.9248 77.2413C56.3508 74.9793 52.6458 73.7933 50.7778 73.9083C47.6828 74.0993 45.0308 75.5063 43.0328 77.3083C41.7528 78.4623 39.9858 80.6143 38.9578 81.9263C38.1098 83.0093 37.2298 84.4683 36.0588 85.4623C34.7518 86.5723 34.1138 87.4233 32.2178 87.7753C31.4518 87.9173 30.1558 88.0223 29.0818 87.8623L25.1608 84.6423C26.4868 85.1583 27.9448 84.9283 28.9248 84.6513C30.6758 84.1573 31.6078 82.5483 32.6138 81.3283C34.4988 79.0423 35.9648 76.6953 37.5408 74.2653C39.0228 71.9803 42.9398 67.6563 46.8408 68.7433C48.8228 69.2953 48.9278 71.0003 49.8078 72.2353C50.7788 69.9373 49.2858 67.0633 46.4488 66.1313Z" fill="black"/>
<path d="M218.34 53.7734C217.428 51.8094 214.76 50.6124 212.863 50.2234C210.786 49.7984 208.641 49.9474 206.606 49.1554C204.977 48.5214 203.864 47.0404 202.943 45.2834L202 45.1934L203.156 68.9474C202.644 68.3734 201.933 67.9154 200.972 67.6364C197.3 66.4444 194.116 67.1204 192.784 68.4764C190.258 71.0494 192.64 74.9534 195.768 75.9174C199.077 76.9384 203.832 76.5234 204.202 72.8684C204.222 72.6754 204.231 72.4834 204.236 72.2924L204.257 72.2944L203.596 58.7184C204.122 59.0844 204.993 59.0984 205.561 59.1724C206.708 59.3224 207.853 59.3044 208.93 59.0894C209.988 58.8774 210.797 58.5364 211.794 58.1544C213.511 57.4964 214.959 57.6524 216.468 58.8024C216.925 59.1504 217.171 59.3094 217.348 59.8544C217.536 60.4344 217.616 61.0524 217.321 61.3284C218.376 60.6734 217.515 58.8564 216.797 58.1974C215.606 57.1054 214.09 56.6164 212.652 56.5154C211.731 56.4504 210.237 56.5624 209.343 56.6494C208.606 56.7214 207.707 56.9164 206.889 56.8354C205.976 56.7444 205.407 56.8114 204.583 56.2274C204.25 55.9914 203.742 55.5424 203.419 55.0824L203.291 52.4514C203.563 53.1344 204.18 53.5994 204.643 53.8674C205.471 54.3464 206.448 54.1174 207.297 54.0554C208.887 53.9394 210.351 53.6444 211.888 53.3604C213.333 53.0934 216.468 53.0064 217.439 54.8614C217.933 55.8034 217.291 56.4574 217.115 57.2324C218.382 56.7694 218.99 55.1734 218.34 53.7734Z" fill="black"/>
<path d="M105.623 115.849C101.816 115.627 98.6595 116.945 97.4305 118.445C95.0985 121.291 97.8315 124.203 101.071 124.348C104.496 124.501 109.26 123.058 109.325 119.743C109.328 119.568 109.322 119.396 109.31 119.227L109.331 119.224L106.211 98.8303C108.285 98.8643 111.169 97.8633 112.843 97.5813C116.884 96.9013 120.861 96.8053 124.877 96.3283L127.368 112.607C126.803 112.216 126.047 111.972 125.054 111.943C121.247 111.721 118.091 113.039 116.862 114.539C114.53 117.385 117.264 120.297 120.502 120.442C123.928 120.595 128.691 119.152 128.756 115.837C128.759 115.662 128.753 115.49 128.741 115.32L128.762 115.317L125.821 96.0953C126.259 94.6123 126.311 92.4683 125.967 91.1663C123.159 91.0973 120.149 91.5093 117.291 91.9973C116.121 92.1973 104.243 94.0843 104.243 94.0843C104.364 96.0263 104.911 98.6143 104.911 98.6143C105.005 98.6513 105.107 98.6783 105.211 98.7053L107.937 116.515C107.373 116.122 106.616 115.878 105.623 115.849Z" fill="black"/>
<path d="M223.57 88.3384C220.502 88.1594 217.959 89.2214 216.968 90.4304C215.089 92.7244 217.292 95.0704 219.901 95.1874C222.661 95.3104 226.5 94.1474 226.553 91.4764C226.556 91.3354 226.55 91.1974 226.541 91.0604L226.558 91.0574L224.044 74.6224C225.715 74.6494 228.039 73.8424 229.389 73.6154C232.645 73.0674 235.85 72.9904 239.087 72.6064L241.094 85.7244C240.639 85.4094 240.029 85.2124 239.229 85.1894C236.161 85.0104 233.618 86.0724 232.627 87.2814C230.748 89.5744 232.951 91.9214 235.56 92.0384C238.32 92.1614 242.159 90.9984 242.212 88.3274C242.215 88.1864 242.209 88.0484 242.2 87.9114L242.217 87.9094L239.847 72.4184C240.2 71.2234 240.242 69.4954 239.964 68.4464C237.701 68.3914 235.275 68.7234 232.972 69.1164C232.029 69.2774 222.457 70.7984 222.457 70.7984C222.555 72.3634 222.995 74.4494 222.995 74.4494C223.071 74.4794 223.154 74.5014 223.237 74.5224L225.433 88.8754C224.98 88.5584 224.371 88.3624 223.57 88.3384Z" fill="black"/>
<path d="M98.2269 86.8231L98.4629 85.7431L97.6639 85.6201C95.8249 85.3371 93.8509 85.0331 91.8269 84.7601C91.7379 83.0571 91.7509 81.2981 91.8149 79.5601C93.6839 79.8171 95.5079 80.0971 97.2139 80.3601L98.0109 80.4831L98.2469 79.4031L97.4509 79.2801C95.6869 79.0081 93.7989 78.7181 91.8619 78.4541C91.9389 76.8681 92.0479 75.3171 92.1509 73.8661L92.1989 73.1861L90.8919 73.1211L90.8439 73.8001C90.7429 75.2181 90.6369 76.7321 90.5599 78.2811C88.5399 78.0221 86.4879 77.8021 84.4799 77.6691C84.5409 76.6901 84.6079 75.7331 84.6729 74.8171L84.7209 74.1371L83.4149 74.0721L83.3669 74.7511C83.3019 75.6641 83.2349 76.6191 83.1739 77.5951C81.2399 77.5051 79.3649 77.5061 77.6289 77.6511L77.7579 78.7431C79.4239 78.6041 81.2349 78.6041 83.1089 78.6911C83.0159 80.4051 82.9569 82.1721 82.9809 83.9171C81.1909 83.8461 79.4579 83.8561 77.8439 83.9901L77.9729 85.0821C79.5449 84.9511 81.2459 84.9441 83.0069 85.0161C83.0879 87.2881 83.3289 89.4901 83.8529 91.4451L85.1299 91.2041C84.6339 89.3531 84.3999 87.2571 84.3179 85.0831C86.3739 85.2111 88.4889 85.4351 90.5739 85.7031C90.6999 87.3891 90.9339 89.0121 91.3309 90.4921L92.6079 90.2511C92.2469 88.9031 92.0269 87.4221 91.9009 85.8781C93.8139 86.1401 95.6819 86.4271 97.4259 86.6951L98.2269 86.8231ZM84.2919 83.9851C84.2659 82.2481 84.3239 80.4821 84.4169 78.7671C86.4239 78.9011 88.4839 79.1241 90.5119 79.3861C90.4449 81.1171 90.4269 82.8751 90.5069 84.5871C88.4379 84.3251 86.3389 84.1081 84.2919 83.9851Z" fill="black"/>
<path d="M241.509 10.1532L241.661 9.45415L241.144 9.37416C239.954 9.19116 238.676 8.99416 237.367 8.81716C237.31 7.71516 237.318 6.57616 237.359 5.45216C238.568 5.61916 239.749 5.80016 240.853 5.97016L241.369 6.04916L241.522 5.35015L241.007 5.27116C239.866 5.09516 238.643 4.90816 237.39 4.73616C237.44 3.71016 237.51 2.70615 237.577 1.76715L237.608 1.32716L236.763 1.28516L236.732 1.72515C236.667 2.64315 236.598 3.62216 236.548 4.62516C235.241 4.45716 233.913 4.31516 232.613 4.22916C232.652 3.59516 232.696 2.97616 232.738 2.38316L232.769 1.94316L231.924 1.90116L231.893 2.34116C231.851 2.93216 231.807 3.55016 231.768 4.18116C230.516 4.12316 229.303 4.12416 228.18 4.21716L228.264 4.92416C229.342 4.83416 230.514 4.83416 231.727 4.89016C231.667 5.99916 231.629 7.14316 231.644 8.27216C230.486 8.22616 229.364 8.23316 228.32 8.32016L228.404 9.02716C229.422 8.94216 230.522 8.93716 231.662 8.98416C231.714 10.4542 231.87 11.8802 232.209 13.1452L233.036 12.9892C232.715 11.7912 232.564 10.4352 232.511 9.02816C233.841 9.11116 235.21 9.25616 236.559 9.42916C236.641 10.5202 236.792 11.5712 237.049 12.5282L237.875 12.3722C237.641 11.4992 237.499 10.5412 237.418 9.54216C238.656 9.71216 239.865 9.89716 240.994 10.0712L241.509 10.1532ZM232.491 8.31615C232.474 7.19215 232.512 6.04916 232.572 4.93916C233.871 5.02616 235.204 5.17016 236.517 5.34016C236.474 6.46016 236.462 7.59816 236.514 8.70616C235.174 8.53616 233.815 8.39615 232.491 8.31615Z" fill="black"/>
<path d="M32.724 158.409C31.525 158.563 30.146 158.641 28.56 158.622C25.699 158.587 20.229 157.592 17.729 155.069C16.611 153.94 16.19 152.649 16.479 151.232C16.959 148.879 18.366 147.003 20.549 145.806C23.695 144.082 28.323 143.788 33.933 144.958C38.753 145.963 40.895 148.705 40.299 153.108C40.01 155.234 38.381 157.68 32.724 158.409ZM25.388 145.89C23.897 146.082 22.601 146.473 21.527 147.062C19.746 148.038 18.64 149.527 18.241 151.486C18.041 152.465 18.323 153.324 19.104 154.111C21.108 156.133 25.855 157.09 28.586 157.123C34.793 157.199 38.137 155.791 38.523 152.941C38.859 150.459 38.592 147.475 33.502 146.414C30.407 145.769 27.669 145.596 25.388 145.89Z" fill="black"/>
<path d="M217.016 32.1363C216.196 32.2423 215.252 32.2953 214.168 32.2823C212.211 32.2583 208.47 31.5773 206.759 29.8523C205.994 29.0803 205.706 28.1973 205.904 27.2283C206.232 25.6183 207.195 24.3353 208.688 23.5173C210.84 22.3373 214.005 22.1373 217.843 22.9373C221.14 23.6243 222.605 25.5003 222.197 28.5123C222 29.9653 220.885 31.6383 217.016 32.1363ZM211.998 23.5733C210.978 23.7043 210.092 23.9723 209.357 24.3743C208.139 25.0423 207.382 26.0603 207.109 27.4003C206.972 28.0703 207.165 28.6573 207.699 29.1963C209.07 30.5793 212.317 31.2333 214.185 31.2563C218.431 31.3083 220.718 30.3453 220.982 28.3953C221.212 26.6983 221.029 24.6563 217.548 23.9303C215.431 23.4903 213.558 23.3723 211.998 23.5733Z" fill="black"/>
<path d="M274.897 106.556L273.974 106.548L276.792 127.711C276.245 127.173 275.515 126.771 274.558 126.573C270.889 125.688 267.857 126.658 266.684 128.155C264.457 130.995 267.111 134.752 270.232 135.455C273.533 136.198 278.113 135.355 278.152 131.605C278.154 131.407 278.146 131.211 278.134 131.017H278.155L274.897 106.556Z" fill="black"/>
<path d="M274.897 8.91032L273.974 8.90332L276.792 30.0663C276.245 29.5283 275.515 29.1263 274.558 28.9283C270.889 28.0433 267.857 29.0133 266.684 30.5103C264.457 33.3503 267.111 37.1073 270.232 37.8103C273.533 38.5533 278.113 37.7103 278.152 33.9603C278.154 33.7623 278.146 33.5663 278.134 33.3723H278.155L274.897 8.91032Z" fill="black"/>
<path d="M225.268 133.439C225.072 131.2 222.944 129.437 221.274 128.671C219.445 127.832 217.354 127.584 215.69 126.367C214.358 125.392 213.805 123.625 213.531 121.601L212.665 121.328L205.643 146.54C205.352 145.84 204.833 145.223 204.015 144.749C200.931 142.802 197.672 142.912 195.942 144.088C192.661 146.318 193.591 150.875 196.235 152.481C199.032 154.179 203.695 154.64 205.297 150.864C205.382 150.665 205.456 150.465 205.526 150.264L205.545 150.27L209.558 135.861C209.934 136.345 210.757 136.525 211.271 136.71C212.31 137.085 213.405 137.281 214.503 137.258C215.581 137.235 216.468 137.028 217.546 136.815C219.404 136.447 220.727 136.884 221.769 138.379C222.085 138.832 222.264 139.045 222.246 139.652C222.227 140.298 222.091 140.963 221.716 141.198C222.943 140.708 222.746 138.634 222.288 137.804C221.529 136.43 220.255 135.63 218.922 135.252C218.068 135.01 216.609 134.846 215.73 134.769C215.004 134.705 214.083 134.741 213.333 134.501C212.496 134.233 211.932 134.196 211.349 133.426C211.113 133.115 210.783 132.547 210.634 132.001L211.412 129.208C211.437 129.978 211.865 130.583 212.213 130.953C212.836 131.613 213.844 131.556 214.672 131.651C216.224 131.829 217.716 131.795 219.275 131.786C220.74 131.778 223.75 132.278 224.04 134.413C224.187 135.498 223.353 136.064 222.921 136.846C224.283 136.599 225.407 135.035 225.268 133.439Z" fill="black"/>
<path d="M254.614 34.8823C254.467 33.2483 252.902 31.9583 251.674 31.3973C250.33 30.7823 248.794 30.5983 247.571 29.7083C246.592 28.9953 246.183 27.7043 245.978 26.2273L245.342 26.0273L240.224 44.4143C240.009 43.9033 239.627 43.4523 239.026 43.1053C236.758 41.6803 234.366 41.7563 233.098 42.6113C230.692 44.2343 231.382 47.5603 233.326 48.7353C235.383 49.9783 238.807 50.3213 239.978 47.5683C240.04 47.4233 240.094 47.2773 240.145 47.1313L240.159 47.1353L243.084 36.6273C243.36 36.9813 243.965 37.1133 244.343 37.2493C245.106 37.5243 245.911 37.6693 246.717 37.6533C247.509 37.6383 248.159 37.4883 248.951 37.3343C250.315 37.0683 251.287 37.3893 252.054 38.4813C252.287 38.8123 252.418 38.9683 252.406 39.4103C252.393 39.8813 252.294 40.3673 252.019 40.5373C252.919 40.1813 252.771 38.6673 252.434 38.0623C251.875 37.0583 250.938 36.4733 249.959 36.1953C249.332 36.0173 248.26 35.8953 247.615 35.8383C247.082 35.7913 246.406 35.8153 245.855 35.6393C245.24 35.4423 244.825 35.4153 244.396 34.8523C244.222 34.6243 243.979 34.2103 243.869 33.8123L244.436 31.7753C244.455 32.3373 244.77 32.7793 245.027 33.0493C245.486 33.5323 246.225 33.4913 246.834 33.5623C247.974 33.6943 249.07 33.6713 250.214 33.6673C251.29 33.6633 253.501 34.0323 253.717 35.5913C253.827 36.3833 253.215 36.7953 252.899 37.3653C253.897 37.1863 254.719 36.0473 254.614 34.8823Z" fill="black"/>
<path d="M182.038 135.743C183.741 132.001 183.958 127.783 182.634 124.171C181.73 121.705 180.213 119.815 178.265 118.677C178.702 117.688 179.13 116.699 179.549 115.709C180.337 113.845 181.01 111.754 181.723 109.54C181.816 109.248 181.911 108.957 182.005 108.665C182.632 108.781 183.506 108.891 184.852 109.012C187.617 109.261 190.786 106.712 193.122 102.357C194.605 99.5911 195.353 96.9481 195.345 94.5001C195.339 92.8781 194.676 92.1001 194.122 91.7321C194.104 91.7201 194.085 91.7081 194.067 91.6971C193.064 91.0731 191.611 91.2001 189.746 92.0761C184.877 94.3621 182.389 99.6961 180.496 105.13C179.923 104.95 179.088 104.742 177.725 104.495C172.917 103.625 167.333 105.351 162.788 109.112C158.158 112.943 155.218 118.369 154.51 124.39C154.047 128.326 155.292 135.639 159.508 139.574C160.5 140.499 161.804 141.311 163.268 141.974C160.919 145.841 156.682 152.188 152.962 151.389C150.424 150.844 147.711 148.707 146.513 146.306C145.81 144.898 145.662 143.526 146.072 142.23C146.605 140.547 147.834 138.975 149.059 138.409C149.867 138.035 150.637 138.085 151.411 138.562C151.416 138.565 151.421 138.568 151.426 138.571C152.51 139.246 153.089 140.459 152.975 141.819C152.887 142.868 152.388 143.799 151.703 144.193C151.124 144.525 150.391 144.488 149.586 144.099C149.704 143.981 149.854 143.842 150.041 143.679C150.629 143.168 150.767 142.277 150.349 141.69C149.931 141.103 149.117 141.041 148.528 141.552C147.706 142.267 146.744 143.23 146.601 144.343C146.531 144.892 146.666 145.41 146.983 145.803C147.047 145.883 147.121 145.953 147.203 146.013C149.763 147.87 151.773 147.214 152.744 146.657C154.315 145.756 155.4 143.894 155.575 141.799C155.776 139.397 154.773 137.267 152.892 136.095C152.884 136.09 152.875 136.085 152.867 136.079C151.419 135.188 149.818 135.103 148.236 135.834C146.233 136.76 144.416 139.008 143.607 141.56C142.959 143.606 143.158 145.773 144.184 147.828C145.149 149.761 146.836 151.517 148.762 152.717C149.864 153.403 151.045 153.908 152.213 154.158C157.849 155.368 162.937 147.48 165.689 142.889C169.011 143.918 172.679 144.204 175.296 143.409C178.644 142.389 180.658 138.777 182.038 135.743ZM167.961 133.804C167.3 133.28 166.634 132.556 166.005 131.586C164.427 129.15 164.523 126.101 166.255 123.628C167.721 121.535 170.763 119.535 174.703 120.39C172.637 124.889 170.384 129.372 167.961 133.804ZM190.58 94.6461C191.833 94.0581 192.444 94.0801 192.598 94.1751L192.601 94.1771C192.662 94.2181 192.729 94.4261 192.731 94.7881C192.738 96.7071 192.119 98.8411 190.891 101.13C189.185 104.31 186.946 106.348 185.319 106.201C184.181 106.098 183.435 106.009 182.914 105.924C184.628 100.983 186.72 96.4581 190.58 94.6461ZM161.321 137.365C157.947 134.216 156.701 127.854 157.098 124.472C157.709 119.276 160.246 114.594 164.241 111.288C168.17 108.037 172.958 106.538 177.048 107.278C178.352 107.514 179.095 107.701 179.583 107.859C179.475 108.192 179.368 108.525 179.262 108.855C178.572 110.998 177.921 113.023 177.189 114.753C176.769 115.745 176.34 116.738 175.902 117.73C171.435 116.586 166.907 118.251 164.23 122.073C161.757 125.604 161.598 129.925 163.817 133.35C164.65 134.636 165.586 135.618 166.559 136.33C165.964 137.385 165.361 138.435 164.747 139.482C163.393 138.898 162.192 138.179 161.321 137.365ZM174.822 140.698C172.82 141.307 169.914 141.097 167.194 140.338C167.744 139.394 168.286 138.447 168.821 137.498C170.525 138.043 172.191 137.859 173.477 137.108C175.311 136.038 176.154 134.001 175.627 131.919C175.442 131.19 174.728 130.819 174.03 131.091C173.333 131.363 172.917 132.176 173.102 132.905C173.3 133.686 173.069 134.275 172.416 134.656C171.911 134.95 171.143 135.093 170.251 134.916C172.702 130.425 174.982 125.883 177.072 121.323C178.444 122.197 179.525 123.607 180.19 125.423C181.237 128.278 181.059 131.749 179.713 134.706C178.693 136.951 177.076 140.013 174.822 140.698Z" fill="black"/>
<path d="M317.782 31.7982C317.354 28.8422 315.816 26.1462 313.563 24.4002C312.025 23.2082 310.335 22.6022 308.675 22.6242C308.554 21.8482 308.427 21.0752 308.294 20.3052C308.044 18.8552 307.632 17.3072 307.196 15.6692C307.138 15.4532 307.081 15.2372 307.024 15.0212C307.459 14.8592 308.044 14.6012 308.927 14.1742C310.741 13.2972 311.695 10.5342 311.417 6.9622C311.24 4.6932 310.656 2.7752 309.68 1.2612C309.033 0.257202 308.314 0.0221994 307.824 0.00119939C307.808 0.000199389 307.792 0.000199938 307.776 0.000199938C306.907 -0.0128001 306.056 0.6082 305.247 1.8472C303.134 5.0812 303.706 9.3172 304.687 13.3922C304.26 13.4942 303.66 13.6772 302.717 14.0322C299.391 15.2862 296.613 18.4402 295.285 22.4672C293.933 26.5702 294.261 31.0312 296.209 35.0292C297.483 37.6422 301.154 41.7132 305.328 42.5802C306.31 42.7842 307.44 42.8012 308.611 42.6652C308.688 45.9392 308.577 51.4552 305.953 52.3482C304.163 52.9572 301.633 52.6442 299.939 51.6022C298.945 50.9912 298.309 50.1962 298.05 49.2392C297.713 47.9962 297.852 46.5642 298.387 45.7552C298.74 45.2222 299.237 44.9662 299.906 44.9722C299.91 44.9722 299.914 44.9722 299.919 44.9722C300.859 44.9862 301.699 45.5222 302.168 46.4082C302.529 47.0912 302.589 47.8552 302.32 48.3542C302.093 48.7762 301.623 49.0272 300.97 49.0852C300.997 48.9682 301.034 48.8262 301.086 48.6552C301.248 48.1192 300.98 47.5152 300.488 47.3072C299.996 47.0992 299.466 47.3642 299.304 47.9012C299.078 48.6512 298.863 49.6072 299.216 50.3512C299.39 50.7182 299.68 50.9882 300.032 51.1142C300.104 51.1392 300.177 51.1552 300.252 51.1622C302.576 51.3582 303.562 50.2022 303.943 49.4942C304.56 48.3492 304.494 46.7902 303.772 45.4252C302.944 43.8602 301.478 42.9142 299.847 42.8892C299.84 42.8892 299.833 42.8892 299.825 42.8892C298.574 42.8762 297.547 43.4212 296.856 44.4652C295.981 45.7862 295.746 47.8582 296.256 49.7422C296.666 51.2522 297.648 52.5222 299.099 53.4132C300.464 54.2522 302.206 54.7122 303.876 54.7372C304.831 54.7512 305.763 54.6242 306.587 54.3432C310.562 52.9912 310.589 46.2012 310.475 42.3282C312.943 41.7272 315.331 40.5362 316.639 39.0662C318.313 37.1862 318.129 34.1942 317.782 31.7982ZM308.284 35.8482C307.666 35.7702 306.967 35.5692 306.192 35.2022C304.248 34.2802 303.098 32.3542 303.192 30.1742C303.271 28.3292 304.365 25.9542 307.146 25.0152C307.649 28.5752 308.03 32.1952 308.284 35.8482ZM306.784 3.1282C307.328 2.2962 307.716 2.0812 307.849 2.0832H307.852C307.906 2.0852 308.03 2.1902 308.175 2.4132C308.94 3.6012 309.402 5.1552 309.549 7.0322C309.752 9.6402 309.172 11.7392 308.105 12.2552C307.359 12.6162 306.86 12.8392 306.504 12.9802C305.606 9.2782 305.11 5.6922 306.784 3.1282ZM305.579 40.5332C302.238 39.8392 298.943 36.3592 297.849 34.1142C296.168 30.6642 295.884 26.8142 297.051 23.2742C298.198 19.7932 300.573 17.0772 303.403 16.0102C304.305 15.6702 304.84 15.5092 305.205 15.4242C305.27 15.6712 305.336 15.9172 305.401 16.1612C305.823 17.7472 306.222 19.2462 306.454 20.5922C306.587 21.3642 306.715 22.1392 306.836 22.9182C303.613 23.8752 301.465 26.5972 301.32 29.9662C301.186 33.0782 302.802 35.8172 305.535 37.1132C306.561 37.6002 307.531 37.8592 308.417 37.9382C308.466 38.8142 308.509 39.6902 308.543 40.5682C307.471 40.7112 306.442 40.7132 305.579 40.5332ZM315.272 37.5632C314.272 38.6882 312.387 39.6422 310.399 40.1862C310.366 39.3962 310.327 38.6062 310.282 37.8182C311.555 37.5202 312.515 36.7852 313.015 35.8392C313.728 34.4922 313.443 32.9142 312.291 31.8192C311.888 31.4362 311.297 31.4722 310.972 31.9012C310.648 32.3302 310.712 32.9892 311.116 33.3722C311.548 33.7822 311.639 34.2342 311.385 34.7132C311.189 35.0842 310.769 35.4592 310.146 35.6822C309.885 31.9832 309.498 28.3162 308.986 24.7082C310.183 24.7382 311.413 25.2092 312.545 26.0872C314.326 27.4672 315.592 29.6852 315.93 32.0212C316.187 33.7952 316.398 36.2972 315.272 37.5632Z" fill="black"/>
<path d="M94.441 149.75C94.455 149.631 94.463 149.513 94.469 149.397L94.48 149.396L94.294 136.093C94.619 135.11 94.792 133.652 94.705 132.741C93.277 132.509 91.713 132.592 90.221 132.737C89.61 132.796 83.421 133.301 83.421 133.301C83.35 134.634 83.452 136.434 83.452 136.434C83.498 136.465 83.548 136.491 83.599 136.516L83.772 148.842C83.51 148.538 83.141 148.322 82.637 148.237C80.71 147.835 79.009 148.526 78.279 149.468C76.895 151.256 78.09 153.421 79.733 153.733C81.47 154.063 84 153.393 84.26 151.136C84.274 151.017 84.282 150.899 84.288 150.783L84.299 150.782L84.135 139.082C85.135 138.875 87.069 138.818 88.947 138.763C91.31 138.694 92.947 138.63 93.828 138.408L93.955 147.457C93.693 147.153 93.324 146.936 92.82 146.852C90.893 146.45 89.192 147.141 88.462 148.083C87.078 149.87 88.273 152.036 89.916 152.348C91.651 152.677 94.181 152.007 94.441 149.75ZM88.954 137.691C87.041 137.747 85.221 137.8 84.118 138.002L84.099 136.666C85.155 136.826 86.695 136.333 87.568 136.251C89.677 136.054 91.712 136.25 93.795 136.189L93.811 137.315C93.154 137.568 90.837 137.636 88.954 137.691Z" fill="black"/>
<path d="M253.284 119.588C253.297 119.475 253.305 119.364 253.31 119.254L253.32 119.253L253.144 106.663C253.452 105.733 253.615 104.353 253.533 103.49C252.181 103.271 250.701 103.349 249.289 103.486C248.711 103.542 242.853 104.02 242.853 104.02C242.786 105.281 242.882 106.985 242.882 106.985C242.925 107.015 242.973 107.039 243.021 107.063L243.184 118.728C242.936 118.44 242.587 118.236 242.109 118.155C240.285 117.774 238.676 118.428 237.985 119.32C236.675 121.012 237.806 123.061 239.361 123.357C241.005 123.669 243.399 123.035 243.645 120.899C243.658 120.786 243.666 120.675 243.671 120.565L243.681 120.564L243.526 109.491C244.473 109.295 246.303 109.241 248.08 109.19C250.316 109.125 251.866 109.064 252.699 108.854L252.819 117.418C252.571 117.13 252.222 116.925 251.745 116.845C249.921 116.464 248.312 117.118 247.621 118.01C246.311 119.702 247.443 121.751 248.997 122.047C250.644 122.358 253.038 121.724 253.284 119.588ZM248.092 108.176C246.281 108.229 244.559 108.279 243.515 108.471L243.497 107.207C244.496 107.358 245.954 106.892 246.781 106.814C248.776 106.627 250.703 106.813 252.674 106.756L252.689 107.821C252.066 108.059 249.874 108.124 248.092 108.176Z" fill="black"/>
<path d="M368.923 42.043C368.936 41.93 368.944 41.819 368.949 41.709H368.96L368.784 29.119C369.091 28.189 369.255 26.809 369.173 25.946C367.821 25.727 366.341 25.805 364.929 25.942C364.351 25.998 358.493 26.476 358.493 26.476C358.426 27.737 358.522 29.441 358.522 29.441C358.565 29.471 358.613 29.495 358.661 29.519L358.824 41.184C358.576 40.896 358.227 40.692 357.749 40.611C355.925 40.23 354.316 40.884 353.625 41.776C352.315 43.467 353.446 45.517 355.001 45.812C356.645 46.124 359.039 45.49 359.285 43.354C359.298 43.241 359.306 43.13 359.311 43.02L359.321 43.019L359.166 31.946C360.113 31.75 361.943 31.696 363.72 31.645C365.956 31.58 367.506 31.519 368.339 31.309L368.459 39.873C368.211 39.585 367.862 39.381 367.384 39.3C365.56 38.919 363.951 39.573 363.26 40.465C361.95 42.157 363.082 44.206 364.636 44.502C366.283 44.813 368.677 44.179 368.923 42.043ZM363.731 30.631C361.92 30.684 360.198 30.734 359.154 30.926L359.136 29.662C360.135 29.813 361.593 29.347 362.42 29.269C364.415 29.082 366.342 29.268 368.312 29.211L368.327 30.276C367.705 30.514 365.513 30.579 363.731 30.631Z" fill="black"/>
<path d="M341.555 21.6192C341.568 21.5062 341.576 21.3952 341.581 21.2852L341.591 21.2842L341.415 8.69419C341.723 7.76419 341.886 6.38419 341.804 5.52119C340.453 5.30219 338.972 5.38019 337.561 5.51719C336.983 5.57319 331.125 6.05119 331.125 6.05119C331.058 7.31219 331.154 9.01619 331.154 9.01619C331.197 9.04619 331.245 9.07019 331.293 9.09419L331.457 20.7592C331.209 20.4712 330.86 20.2662 330.382 20.1862C328.558 19.8052 326.949 20.4592 326.258 21.3512C324.948 23.0432 326.079 25.0922 327.634 25.3882C329.278 25.7002 331.672 25.0662 331.918 22.9302C331.931 22.8172 331.939 22.7062 331.944 22.5962L331.954 22.5952L331.799 11.5222C332.746 11.3262 334.576 11.2722 336.353 11.2212C338.589 11.1562 340.139 11.0952 340.972 10.8852L341.092 19.4492C340.844 19.1612 340.495 18.9562 340.017 18.8762C338.193 18.4952 336.584 19.1492 335.893 20.0412C334.583 21.7332 335.714 23.7822 337.269 24.0782C338.915 24.3892 341.309 23.7552 341.555 21.6192ZM336.363 10.2072C334.552 10.2602 332.83 10.3102 331.786 10.5022L331.768 9.23819C332.767 9.38919 334.225 8.92319 335.052 8.84519C337.047 8.65819 338.974 8.84419 340.945 8.78719L340.96 9.85219C340.337 10.0902 338.144 10.1552 336.363 10.2072Z" fill="black"/>
<path d="M267.415 71.9151C267.428 71.8021 267.436 71.6911 267.441 71.5811L267.451 71.5801L267.275 58.9901C267.583 58.0601 267.746 56.6801 267.664 55.8181C266.313 55.5991 264.832 55.6771 263.421 55.8141C262.843 55.8701 256.985 56.3481 256.985 56.3481C256.918 57.6091 257.014 59.3131 257.014 59.3131C257.057 59.3431 257.105 59.3671 257.153 59.3911L257.316 71.0561C257.068 70.7681 256.719 70.5631 256.242 70.4831C254.418 70.1021 252.809 70.7561 252.118 71.6481C250.808 73.3401 251.939 75.3891 253.494 75.6851C255.138 75.9971 257.532 75.3631 257.778 73.2271C257.791 73.1141 257.799 73.0031 257.804 72.8931L257.815 72.8921L257.66 61.8191C258.607 61.6231 260.436 61.5691 262.214 61.5181C264.45 61.4531 266 61.3921 266.833 61.1821L266.953 69.7461C266.705 69.4581 266.356 69.2531 265.878 69.1731C264.054 68.7921 262.445 69.4471 261.754 70.3381C260.444 72.0301 261.575 74.0791 263.13 74.3751C264.775 74.6851 267.169 74.0501 267.415 71.9151ZM262.223 60.5021C260.412 60.5551 258.69 60.6051 257.646 60.7971L257.628 59.5331C258.627 59.6841 260.085 59.2181 260.911 59.1401C262.906 58.9531 264.833 59.1391 266.804 59.0821L266.819 60.1471C266.197 60.3861 264.004 60.4501 262.223 60.5021Z" fill="black"/>
</svg>
